<svg width="24" height="24" viewBox="0 0 24 24" fill="none" xmlns="http://www.w3.org/2000/svg">
<path d="M4.01514 5.494H3.76214C3.34914 5.494 3.01514 5.159 3.01514 4.747C3.01514 4.335 3.34914 4 3.76214 4H9.01514V3C9.01514 2.465 9.48914 2 10.0151 2H14.0151C14.5411 2 15.0151 2.465 15.0151 3V4H20.2691C20.6811 4 21.0151 4.335 21.0151 4.747C21.0151 5.159 20.6811 5.494 20.2691 5.494H20.0151V20.929C20.0151 21.52 19.5671 22 19.0151 22C16.1421 22 7.88814 22 5.01514 22C4.46314 22 4.01514 21.52 4.01514 20.929V5.494ZM18.5151 5.494H5.51514V20.5H18.5151V5.494ZM14.2651 8C13.8511 8 13.5151 8.336 13.5151 8.75V17.25C13.5151 17.664 13.8511 18 14.2651 18C14.6791 18 15.0151 17.664 15.0151 17.25V8.75C15.0151 8.336 14.6791 8 14.2651 8ZM9.76514 8C9.35114 8 9.01514 8.336 9.01514 8.75V17.25C9.01514 17.664 9.35114 18 9.76514 18C10.1791 18 10.5151 17.664 10.5151 17.25V8.75C10.5151 8.336 10.1791 8 9.76514 8ZM13.5151 4V3.5H10.5151V4H13.5151Z" fill="#6D7D8B"/>
</svg>
