<svg width="42" height="42" viewBox="0 0 42 42" fill="none" xmlns="http://www.w3.org/2000/svg">
<path d="M21.0035 3.5C30.66 3.5 38.5 11.34 38.5 20.9965C38.5 30.6513 30.66 38.4913 21.0035 38.4913C11.3488 38.4913 3.50879 30.6513 3.50879 20.9965C3.50879 11.34 11.3488 3.5 21.0035 3.5ZM21.0035 6.125C12.796 6.125 6.13379 12.789 6.13379 20.9965C6.13379 29.204 12.796 35.8663 21.0035 35.8663C29.211 35.8663 35.875 29.204 35.875 20.9965C35.875 12.789 29.211 6.125 21.0035 6.125ZM19.6963 19.6875H13.5713C12.8468 19.6875 12.2588 20.2755 12.2588 21C12.2588 21.7245 12.8468 22.3125 13.5713 22.3125H19.6963V28.4375C19.6963 29.162 20.2843 29.75 21.0088 29.75C21.7333 29.75 22.3213 29.162 22.3213 28.4375V22.3125H28.4463C29.1708 22.3125 29.7588 21.7245 29.7588 21C29.7588 20.2755 29.1708 19.6875 28.4463 19.6875H22.3213V13.5625C22.3213 12.838 21.7333 12.25 21.0088 12.25C20.2843 12.25 19.6963 12.838 19.6963 13.5625V19.6875Z" fill="#6D7D8B"/>
</svg>
